<svg xmlns="http://www.w3.org/2000/svg" xmlns:xlink="http://www.w3.org/1999/xlink" viewBox="0,0,256,256" width="24px" height="24px" fill-rule="nonzero"><g fill="#eeeeee" fill-rule="nonzero" stroke="none" stroke-width="1" stroke-linecap="butt" stroke-linejoin="miter" stroke-miterlimit="10" stroke-dasharray="" stroke-dashoffset="0" font-family="none" font-weight="none" font-size="none" text-anchor="none" style="mix-blend-mode: normal"><g transform="scale(10.66667,10.66667)"><path d="M5.75,3c-0.47882,-0.0004 -0.89074,0.33864 -0.98242,0.80859l-1.75,9c-0.01199,0.06309 -0.01788,0.12719 -0.01758,0.19141v6c0,1.09306 0.90694,2 2,2h14c1.09306,0 2,-0.90694 2,-2v-6c0.0003,-0.06422 -0.00559,-0.12832 -0.01758,-0.19141l-1.75,-9c-0.09169,-0.46996 -0.50361,-0.80899 -0.98242,-0.80859zM6.57422,5h10.85156l1.55469,8h-2.98047c-0.43,0 -0.81222,0.27459 -0.94922,0.68359l-0.5957,1.78906c-0.105,0.314 -0.40042,0.52734 -0.73242,0.52734h-3.44531c-0.332,0 -0.62742,-0.21234 -0.73242,-0.52734l-0.59766,-1.78906c-0.136,-0.408 -0.51727,-0.68359 -0.94727,-0.68359h-2.98047z"></path></g></g></svg>