<svg xmlns="http://www.w3.org/2000/svg" xmlns:xlink="http://www.w3.org/1999/xlink" viewBox="0,0,256,256" width="24px" height="24px" fill-rule="nonzero"><g fill="#eeeeee" fill-rule="nonzero" stroke="none" stroke-width="1" stroke-linecap="butt" stroke-linejoin="miter" stroke-miterlimit="10" stroke-dasharray="" stroke-dashoffset="0" font-family="none" font-weight="none" font-size="none" text-anchor="none" style="mix-blend-mode: normal"><g transform="scale(10.66667,10.66667)"><path d="M7,1c-0.552,0 -1,0.448 -1,1v1h-1c-1.1,0 -2,0.9 -2,2v5c0,0.552 0.448,1 1,1c0.552,0 1,-0.448 1,-1v-2h14v11h-14v-1c0,-0.552 -0.448,-1 -1,-1c-0.552,0 -1,0.448 -1,1v1c0,1.1 0.9,2 2,2h14c1.1,0 2,-0.9 2,-2v-14c0,-1.1 -0.9,-2 -2,-2h-1v-1c0,-0.552 -0.448,-1 -1,-1c-0.552,0 -1,0.448 -1,1v1h-8v-1c0,-0.552 -0.448,-1 -1,-1zM10.63867,11.00391c-0.33682,0.04005 -0.63867,0.31547 -0.63867,0.71484v1.28125h-6c-0.552,0 -1,0.448 -1,1c0,0.552 0.448,1 1,1h6v1.28125c0,0.639 0.77261,0.95786 1.22461,0.50586l2.11133,-2.10938c0.375,-0.375 0.375,-0.98242 0,-1.35742l-2.11133,-2.10937c-0.1695,-0.16875 -0.38385,-0.23106 -0.58594,-0.20703z"></path></g></g></svg>